<?xml version="1.0" standalone="no"?>
<!DOCTYPE svg PUBLIC "-//W3C//DTD SVG 20010904//EN"
 "http://www.w3.org/TR/2001/REC-SVG-20010904/DTD/svg10.dtd">
<svg version="1.0" xmlns="http://www.w3.org/2000/svg"
 width="1254.000000pt" height="1254.000000pt" viewBox="0 0 1254.000000 1254.000000"
 preserveAspectRatio="xMidYMid meet">

<g transform="translate(0.000000,1254.000000) scale(0.100000,-0.100000)"
fill="#000000" stroke="none">
<path d="M7593 8265 c-216 -39 -400 -147 -533 -312 -148 -183 -220 -402 -220
-668 0 -88 4 -117 18 -144 47 -88 174 -93 233 -10 21 30 24 47 30 183 4 95 13
171 24 206 55 179 182 333 335 409 150 73 130 72 1146 69 839 -3 903 -5 954
-22 167 -55 302 -167 378 -312 81 -158 77 -97 77 -1099 l0 -890 -23 -75 c-46
-147 -129 -262 -249 -344 -104 -71 -191 -97 -348 -105 -190 -10 -176 3 -312
-274 l-112 -228 -34 38 c-18 21 -107 125 -197 232 -125 147 -173 198 -204 212
-38 17 -74 19 -456 19 -467 0 -505 4 -630 67 -100 51 -212 161 -263 260 -49
94 -65 140 -82 241 -8 47 -24 96 -35 112 -25 36 -93 63 -134 54 -46 -9 -94
-50 -105 -88 -21 -78 27 -292 95 -428 87 -174 260 -335 444 -415 154 -66 156
-66 602 -72 l406 -6 250 -281 c181 -203 260 -285 283 -293 74 -26 156 -7 199
46 14 17 81 141 150 276 l125 246 40 5 c231 28 326 54 446 126 162 96 307 275
371 460 53 152 51 123 55 1040 5 1031 2 1066 -88 1258 -112 242 -304 408 -566
489 l-88 28 -955 2 c-754 1 -970 -1 -1027 -12z"/>
<path d="M3545 8063 c-66 -10 -174 -47 -245 -84 -231 -119 -388 -347 -420
-609 -13 -110 -13 -1000 0 -1110 19 -153 64 -264 162 -394 100 -134 275 -247
444 -287 133 -31 303 -24 434 19 221 73 402 245 488 463 57 142 57 146 57 759
0 645 2 629 -85 805 -77 158 -169 256 -319 342 -123 70 -214 95 -361 98 -69 2
-138 1 -155 -2z m277 -303 c166 -51 309 -204 347 -370 7 -28 11 -248 11 -581
0 -588 0 -583 -62 -701 -39 -73 -133 -167 -206 -206 -289 -154 -642 -2 -736
317 -23 80 -24 1096 -1 1186 42 161 170 296 335 352 87 30 221 31 312 3z"/>
<path d="M5875 7340 c-68 -45 -65 -1 -65 -858 0 -841 -2 -805 56 -851 58 -46
141 -35 194 25 l30 35 0 785 c0 866 3 824 -63 864 -42 26 -113 26 -152 0z"/>
<path d="M8243 7204 c-68 -34 -93 -126 -53 -191 39 -65 13 -63 721 -63 l641 0
39 39 c34 34 39 44 39 85 0 62 -22 101 -70 126 -38 19 -58 20 -662 20 -550 0
-627 -2 -655 -16z"/>
<path d="M6389 7097 c-71 -47 -69 -32 -69 -617 0 -494 2 -527 19 -567 44 -96
158 -109 231 -27 l30 35 0 552 c0 530 -1 553 -20 584 -38 64 -128 83 -191 40z"/>
<path d="M7421 6963 c-19 -10 -44 -31 -55 -46 -20 -27 -21 -42 -24 -420 -2
-262 0 -404 8 -429 24 -84 136 -120 209 -68 60 42 61 50 61 475 0 424 -1 433
-59 475 -44 30 -98 35 -140 13z"/>
<path d="M5344 6936 l-39 -34 -3 -413 c-2 -401 -2 -415 18 -447 45 -73 155
-82 219 -18 l36 36 3 405 c2 353 1 409 -13 435 -23 45 -70 70 -131 70 -43 0
-56 -5 -90 -34z"/>
<path d="M6939 6830 c-40 -12 -75 -38 -87 -66 -8 -17 -12 -112 -12 -293 0
-257 1 -269 21 -295 61 -77 180 -74 229 7 18 30 20 52 20 301 l0 268 -39 39
c-21 22 -48 39 -59 39 -11 0 -26 2 -34 4 -7 2 -25 1 -39 -4z"/>
<path d="M4816 6707 c-68 -39 -76 -67 -76 -262 0 -107 -6 -202 -15 -257 -75
-429 -385 -767 -799 -869 -106 -26 -298 -35 -406 -20 -147 22 -311 85 -440
170 -74 49 -213 183 -265 256 -116 164 -185 376 -185 572 0 62 -3 75 -26 103
-52 61 -130 78 -191 40 -63 -38 -73 -82 -63 -267 17 -312 127 -552 364 -789
210 -211 457 -339 731 -378 l80 -12 0 -170 0 -169 -245 -5 c-219 -4 -248 -7
-273 -24 -83 -56 -80 -194 5 -246 32 -19 48 -20 659 -20 l626 0 33 23 c49 33
72 82 66 136 -7 54 -27 86 -69 111 -29 18 -52 20 -269 20 l-238 0 0 170 c0
168 0 170 23 174 12 3 54 10 92 17 168 28 374 114 525 219 171 119 359 348
450 545 94 204 122 364 118 662 l-3 212 -29 30 c-29 30 -79 51 -121 51 -11 0
-38 -10 -59 -23z"/>
<path d="M8266 6630 c-88 -27 -126 -142 -69 -211 51 -60 34 -59 705 -59 589 0
613 1 653 20 51 24 75 65 75 124 0 36 -6 52 -31 80 -17 20 -47 40 -67 46 -45
12 -1224 12 -1266 0z"/>
<path d="M8255 6046 c-53 -24 -78 -60 -83 -121 -4 -53 -3 -56 36 -95 l40 -40
497 0 c442 0 500 2 525 16 89 53 76 208 -20 241 -53 18 -954 17 -995 -1z"/>
</g>
</svg>
