<?xml version="1.0" standalone="no"?>
<!DOCTYPE svg PUBLIC "-//W3C//DTD SVG 20010904//EN"
 "http://www.w3.org/TR/2001/REC-SVG-20010904/DTD/svg10.dtd">
<svg version="1.0" xmlns="http://www.w3.org/2000/svg"
 width="1254.000000pt" height="1254.000000pt" viewBox="0 0 1254.000000 1254.000000"
 preserveAspectRatio="xMidYMid meet">

<g transform="translate(0.000000,1254.000000) scale(0.100000,-0.100000)"
fill="#000000" stroke="none">
<path d="M4297 8139 c-286 -24 -544 -114 -787 -274 -368 -243 -631 -637 -720
-1080 -27 -133 -37 -369 -20 -517 75 -684 564 -1264 1231 -1458 220 -64 108
-61 2296 -63 1817 -1 1997 0 2088 15 447 75 835 321 1101 701 123 174 230 424
275 643 26 128 37 454 19 605 -76 657 -571 1221 -1217 1384 -54 13 -128 30
-163 36 -78 14 -3943 22 -4103 8z m4099 -222 c590 -121 1040 -565 1160 -1142
15 -71 19 -134 19 -300 0 -243 -9 -303 -70 -490 -81 -248 -185 -417 -369 -600
-191 -190 -390 -308 -636 -380 -162 -47 -117 -46 -2193 -46 -1369 0 -1974 3
-2027 10 -327 48 -614 194 -856 436 -189 189 -317 404 -389 653 -46 161 -59
278 -52 471 4 129 10 176 35 271 125 486 442 847 905 1034 97 39 272 83 377
95 41 5 962 8 2045 7 1801 -2 1977 -4 2051 -19z"/>
<path d="M4310 7524 c-144 -39 -258 -155 -295 -302 -14 -52 -16 -122 -13 -459
l3 -398 32 -68 c62 -131 176 -219 320 -247 158 -31 339 52 432 198 58 93 61
117 61 543 0 356 -2 392 -19 450 -68 218 -298 343 -521 283z"/>
<path d="M7830 7424 c-30 -8 -73 -25 -95 -39 -58 -34 -132 -117 -163 -183
l-27 -57 0 -770 0 -770 32 -67 c39 -84 103 -147 191 -190 l67 -33 385 -3 385
-3 90 46 c117 59 138 76 138 109 0 15 -4 30 -8 34 -3 4 -217 9 -473 12 -449 5
-469 6 -507 26 -22 11 -53 40 -70 63 l-30 43 -3 717 -2 718 28 54 c22 42 38
58 77 79 l49 25 545 3 c374 2 549 6 558 14 29 24 15 65 -39 111 -97 82 -59 77
-595 76 -388 0 -488 -3 -533 -15z"/>
<path d="M6323 7089 c-66 -19 -63 13 -63 -690 0 -626 0 -637 20 -662 41 -52
138 -40 160 19 15 38 13 1256 -1 1288 -10 20 -66 59 -81 55 -1 0 -17 -5 -35
-10z"/>
<path d="M8111 6823 c-12 -10 -24 -35 -27 -55 -5 -30 -2 -41 19 -62 l26 -26
434 0 c427 0 434 0 453 21 28 31 25 96 -5 120 -22 18 -46 19 -451 19 -393 0
-430 -1 -449 -17z"/>
<path d="M5889 6801 l-29 -29 0 -372 0 -372 29 -29 c39 -39 89 -40 131 -1 l31
27 0 375 1 375 -31 27 c-43 39 -92 38 -132 -1z"/>
<path d="M6697 6819 c-43 -25 -47 -60 -47 -420 0 -371 3 -393 56 -418 64 -29
126 3 139 70 3 19 5 191 3 382 l-3 349 -28 24 c-30 26 -87 32 -120 13z"/>
<path d="M3680 6670 c-29 -29 -33 -60 -27 -199 10 -212 64 -361 182 -503 111
-134 294 -239 460 -264 l45 -6 0 -114 0 -114 -146 0 -146 0 -29 -29 c-16 -16
-29 -39 -29 -51 0 -29 26 -76 45 -84 22 -8 758 -8 780 0 19 8 45 55 45 84 0
12 -13 35 -29 51 l-29 29 -146 0 -146 0 0 113 0 112 79 17 c288 59 522 293
591 591 18 76 21 117 18 221 -3 120 -4 129 -27 147 -33 27 -86 25 -115 -4 -21
-21 -24 -34 -29 -168 -8 -210 -45 -313 -159 -435 -126 -135 -261 -194 -442
-194 -193 0 -348 72 -467 215 -94 114 -127 215 -132 412 -3 134 -5 144 -27
168 -30 32 -90 35 -120 5z"/>
<path d="M5507 6569 c-35 -21 -47 -64 -47 -174 0 -147 22 -185 105 -185 27 0
44 8 67 30 l30 30 -4 131 c-3 129 -3 131 -31 155 -30 26 -87 32 -120 13z"/>
<path d="M7083 6556 l-28 -24 0 -137 0 -137 28 -24 c52 -45 134 -25 156 38 6
17 11 73 11 125 0 102 -15 154 -48 172 -36 19 -89 13 -119 -13z"/>
<path d="M8130 6447 c-55 -28 -64 -94 -18 -137 21 -19 34 -20 448 -20 414 0
427 1 448 20 44 41 35 110 -18 137 -36 18 -824 18 -860 0z"/>
<path d="M8109 6041 c-38 -38 -38 -74 1 -112 l29 -30 340 3 c332 3 341 4 362
24 31 32 29 92 -6 121 -26 23 -27 23 -361 23 l-336 0 -29 -29z"/>
</g>
</svg>
