<svg xmlns="http://www.w3.org/2000/svg" width="48" height="48" viewBox="0 0 48 47.254581" version="1.1">
  <!-- Icon-only crop derived from the Qwen logo: https://commons.wikimedia.org/wiki/File:Qwen_Logo.svg -->
  <defs>
    <style>
      .qwen-fill { fill: #615ced; fill-rule: evenodd; }
      .qwen-cut { fill: #ffffff; fill-rule: evenodd; }
    </style>
  </defs>
  <g transform="translate(-24.417634,-124.80396)">
    <g transform="matrix(0.26458333,0,0,0.26458333,-6.34659,69.558959)">
      <path class="qwen-cut" d="m 47.46875,125.42578 -2.179688,0.0527 a 0.62169379,0.62169379 0 0 1 -0.01563,0 h -3.412109 c -0.203341,0 -0.24086,0.0227 -0.371094,0.23437 l -6.023437,10.51172 a 0.62169379,0.62169379 0 0 1 -0.02148,0.0371 c -0.140967,0.21149 -0.440845,0.4082 -0.755859,0.4082 h -5.582031 c -0.431055,0 -0.492773,0.0342 -0.707031,0.4043 h 0.002 c -1.002954,1.74197 -1.980401,3.48775 -2.988282,5.23828 a 0.62169379,0.62169379 0 0 1 -0.002,0 c -0.271287,0.46858 -0.359081,0.74083 -0.371093,0.89844 -0.01189,0.15596 0.02259,0.27799 0.169921,0.5625 0.0015,0.003 3.8e-4,0.003 0.002,0.006 l 1.683593,2.96875 a 0.62169379,0.62169379 0 0 1 0,0.002 c 1.318408,2.34676 2.665257,4.67235 4.013672,7.02539 0.191516,0.32078 0.19224,0.74209 0,1.0625 l -2.576172,4.52344 c -4.59e-4,8.6e-4 4.57e-4,0.001 0,0.002 -0.134737,0.2531 -0.135653,0.32182 0,0.57617 l 3.28125,5.67969 c 0.387935,0.10844 0.802127,0.17183 1.273438,0.13086 a 0.62169379,0.62169379 0 0 1 0.05469,-0.002 h 11.007813 c 0.112808,0 0.243911,0.0149 0.394531,0.0918 0.15062,0.0769 0.315367,0.24299 0.380859,0.43946 l -0.05078,-0.11328 2.876953,4.99023 c 0.156413,0.26069 0.193465,0.28125 0.472657,0.28125 h 6.482421 c 0.326233,0 0.524511,-0.0391 0.652344,-0.0996 0.127173,-0.0602 0.228889,-0.14331 0.369141,-0.38281 l 0.002,-0.002 c 1.956193,-3.38369 3.886014,-6.77039 5.816406,-10.18164 a 0.62169379,0.62169379 0 0 1 0.101563,-0.13281 c 0.05492,-0.0549 0.271298,-0.28711 0.625,-0.28711 1.660218,-0.0264 3.328246,-0.0537 5.001953,-0.0273 0.5601,0 0.656952,-0.0416 0.919922,-0.48633 v -0.002 c 0.97295,-1.65667 1.919244,-3.31493 2.867187,-5 0.147063,-0.28219 0.217636,-0.47188 0.230469,-0.59766 0.01287,-0.12614 0.0019,-0.22909 -0.136719,-0.4668 a 0.62169379,0.62169379 0 0 1 -0.002,-0.004 l -5.714844,-9.97461 0.05078,0.0762 c -0.258724,-0.32772 -0.400448,-0.76322 -0.314454,-1.11719 0.0857,-0.35275 0.242904,-0.51359 0.337891,-0.68164 l 0.002,-0.002 0.792969,-1.42774 c 0.535836,-0.9645 1.09479,-1.89626 1.650391,-2.82226 a 0.62169379,0.62169379 0 0 1 0.0059,-0.008 c 0.204303,-0.32916 0.217243,-0.44257 0.208984,-0.53711 -0.0082,-0.0939 -0.0844,-0.28253 -0.27539,-0.62696 l -0.002,-0.002 -3.121094,-5.52734 a 0.62169379,0.62169379 0 0 1 -0.002,-0.004 C 64.36956,130.7449 64.267536,130.7168 64.164062,130.7168 h -11.93164 c -0.297761,0 -0.710264,-0.2085 -0.876953,-0.48633 a 0.62169379,0.62169379 0 0 1 -0.01367,-0.0234 c -0.794525,-1.46091 -1.615153,-2.89926 -2.439453,-4.3418 a 0.62169379,0.62169379 0 0 1 -0.04492,-0.0156 c -0.09475,-0.1692 -0.219248,-0.25424 -0.460938,-0.32617 -0.241186,-0.0718 -0.578176,-0.0976 -0.925781,-0.0977 z" transform="matrix(3.7795276,0,0,3.7795276,23.987112,-262.90001)"/>
      <path class="qwen-fill" d="m 233.8,279.6 c 0.4,0 0.5,0.2 0.3,0.5 l -6.8,11.9 -21.2,37.3 c 0,0.2 -0.2,0.2 -0.4,0.2 -0.2,0 -0.3,0 -0.4,-0.2 l -28.1,-49 c -0.2,-0.3 0,-0.4 0.2,-0.4 h 1.8 c 0,0 54.7,-0.2 54.7,-0.2 v 0 z m -51.1,-65.2 c -0.2,0 -0.3,0 -0.4,0.2 L 159,255.4 c -0.2,0.4 -0.6,0.6 -1.1,0.6 h -23.3 c -0.5,0 -0.6,0.2 -0.3,0.6 l 47.2,82.6 c 0.2,0.3 0.1,0.5 -0.3,0.5 h -22.7 c -0.7,0 -1.3,0.4 -1.6,1.1 l -10.7,18.8 c -0.4,0.6 -0.2,1 0.6,1 h 46.5 c 0.4,0 0.7,0.2 0.8,0.6 l 11.4,20 c 0.4,0.7 0.7,0.7 1.1,0 l 40.7,-71.2 6.4,-11.2 c 0,-0.2 0.2,-0.2 0.4,-0.2 0.2,0 0.3,0 0.4,0.2 l 11.6,20.6 c 0.2,0.3 0.5,0.5 0.9,0.5 l 22.5,-0.2 c 0.1,0 0.2,0 0.3,-0.2 0,-0.1 0,-0.2 0,-0.3 l -23.6,-41.4 c -0.2,-0.3 -0.2,-0.6 0,-0.9 l 2.4,-4.1 9.1,-16.1 c 0.2,-0.3 0,-0.5 -0.3,-0.5 h -94.3 c -0.5,0 -0.6,-0.2 -0.3,-0.6 l 11.7,-20.4 c 0.2,-0.3 0.2,-0.6 0,-0.9 l -11.1,-19.5 c 0,-0.2 -0.2,-0.3 -0.4,-0.3 v 0 z m 27.9,-3.2 c 3.2,5.6 6.4,11.2 9.5,16.9 0.3,0.5 0.7,0.7 1.3,0.7 h 45.1 c 1.4,0 2.6,0.9 3.6,2.7 l 11.8,20.9 c 1.5,2.7 2,3.9 0.2,6.8 -2.1,3.5 -4.2,7 -6.2,10.6 l -3,5.4 c -0.9,1.6 -1.8,2.3 -0.3,4.2 l 21.6,37.7 c 1.4,2.4 0.9,4 -0.3,6.3 -3.6,6.4 -7.2,12.7 -10.9,19 -1.3,2.2 -2.9,3 -5.5,3 -6.3,-0.1 -12.6,0 -18.9,0.1 -0.3,0 -0.5,0.2 -0.7,0.4 -7.3,12.9 -14.6,25.7 -22,38.5 -1.4,2.4 -3.1,3 -5.9,3 -8.1,0 -16.3,0 -24.5,0 -1.7,0 -2.9,-0.7 -3.8,-2.2 l -10.9,-18.9 c -0.1,-0.3 -0.4,-0.4 -0.7,-0.4 h -41.6 c -2.3,0.2 -4.5,0 -6.5,-0.7 l -13,-22.5 c -0.8,-1.5 -0.8,-2.9 0,-4.4 l 9.8,-17.2 c 0.3,-0.5 0.3,-1.1 0,-1.6 -5.1,-8.9 -10.2,-17.7 -15.2,-26.6 l -6.4,-11.3 c -1.3,-2.5 -1.4,-4 0.8,-7.8 3.8,-6.6 7.5,-13.2 11.3,-19.8 1.1,-1.9 2.5,-2.7 4.7,-2.7 7,0 14,0 21.1,0 0.4,0 0.7,-0.2 0.9,-0.5 L 178.8,211 c 0.8,-1.3 1.9,-2 3.4,-2 4.3,0 8.6,0 12.9,0 l 8.3,-0.2 c 2.8,0 5.9,0.3 7.3,2.8 z"/>
    </g>
  </g>
</svg>
